<mxfile host="65bd71144e">
    <diagram name="Page-1" id="nXeT6kKRCyfcVjysGUWI">
        <mxGraphModel dx="2063" dy="1999" grid="1" gridSize="10" guides="1" tooltips="1" connect="1" arrows="1" fold="1" page="1" pageScale="1" pageWidth="850" pageHeight="1100" math="0" shadow="0">
            <root>
                <mxCell id="0"/>
                <mxCell id="1" parent="0"/>
                <mxCell id="0jrbXOjKX1jkyTTBD30B-65" style="edgeStyle=orthogonalEdgeStyle;rounded=0;orthogonalLoop=1;jettySize=auto;html=1;entryX=1;entryY=0.5;entryDx=0;entryDy=0;fontColor=#000000;" parent="1" source="0jrbXOjKX1jkyTTBD30B-1" target="0jrbXOjKX1jkyTTBD30B-20" edge="1">
                    <mxGeometry relative="1" as="geometry"/>
                </mxCell>
                <mxCell id="0jrbXOjKX1jkyTTBD30B-69" style="edgeStyle=orthogonalEdgeStyle;rounded=0;orthogonalLoop=1;jettySize=auto;html=1;entryX=1;entryY=0.5;entryDx=0;entryDy=0;fontColor=#000000;" parent="1" source="0jrbXOjKX1jkyTTBD30B-1" target="0jrbXOjKX1jkyTTBD30B-32" edge="1">
                    <mxGeometry relative="1" as="geometry">
                        <Array as="points">
                            <mxPoint x="140" y="520"/>
                            <mxPoint x="140" y="10"/>
                        </Array>
                    </mxGeometry>
                </mxCell>
                <mxCell id="0jrbXOjKX1jkyTTBD30B-76" style="edgeStyle=orthogonalEdgeStyle;rounded=0;orthogonalLoop=1;jettySize=auto;html=1;entryX=1;entryY=0.5;entryDx=0;entryDy=0;fontColor=#000000;" parent="1" source="0jrbXOjKX1jkyTTBD30B-1" target="0jrbXOjKX1jkyTTBD30B-14" edge="1">
                    <mxGeometry relative="1" as="geometry"/>
                </mxCell>
                <mxCell id="0jrbXOjKX1jkyTTBD30B-77" style="edgeStyle=orthogonalEdgeStyle;rounded=0;orthogonalLoop=1;jettySize=auto;html=1;entryX=1;entryY=0.5;entryDx=0;entryDy=0;fontColor=#000000;" parent="1" source="0jrbXOjKX1jkyTTBD30B-1" target="0jrbXOjKX1jkyTTBD30B-22" edge="1">
                    <mxGeometry relative="1" as="geometry"/>
                </mxCell>
                <mxCell id="0jrbXOjKX1jkyTTBD30B-88" style="edgeStyle=orthogonalEdgeStyle;rounded=0;orthogonalLoop=1;jettySize=auto;html=1;entryX=0;entryY=0.5;entryDx=0;entryDy=0;fontColor=#000000;" parent="1" source="0jrbXOjKX1jkyTTBD30B-1" target="0jrbXOjKX1jkyTTBD30B-85" edge="1">
                    <mxGeometry relative="1" as="geometry"/>
                </mxCell>
                <mxCell id="0jrbXOjKX1jkyTTBD30B-92" style="edgeStyle=orthogonalEdgeStyle;rounded=0;orthogonalLoop=1;jettySize=auto;html=1;entryX=1;entryY=0.5;entryDx=0;entryDy=0;fontColor=#000000;" parent="1" source="0jrbXOjKX1jkyTTBD30B-1" target="0jrbXOjKX1jkyTTBD30B-91" edge="1">
                    <mxGeometry relative="1" as="geometry"/>
                </mxCell>
                <mxCell id="0jrbXOjKX1jkyTTBD30B-99" style="edgeStyle=orthogonalEdgeStyle;rounded=0;orthogonalLoop=1;jettySize=auto;html=1;entryX=0;entryY=0.5;entryDx=0;entryDy=0;fontColor=#000000;" parent="1" source="0jrbXOjKX1jkyTTBD30B-1" target="0jrbXOjKX1jkyTTBD30B-98" edge="1">
                    <mxGeometry relative="1" as="geometry"/>
                </mxCell>
                <mxCell id="0jrbXOjKX1jkyTTBD30B-111" style="edgeStyle=orthogonalEdgeStyle;rounded=0;orthogonalLoop=1;jettySize=auto;html=1;entryX=0;entryY=0.5;entryDx=0;entryDy=0;fontColor=#000000;" parent="1" source="0jrbXOjKX1jkyTTBD30B-1" target="0jrbXOjKX1jkyTTBD30B-104" edge="1">
                    <mxGeometry relative="1" as="geometry">
                        <Array as="points">
                            <mxPoint x="350" y="520"/>
                            <mxPoint x="350" y="350"/>
                        </Array>
                    </mxGeometry>
                </mxCell>
                <mxCell id="0jrbXOjKX1jkyTTBD30B-117" style="edgeStyle=orthogonalEdgeStyle;rounded=0;orthogonalLoop=1;jettySize=auto;html=1;entryX=0;entryY=0.5;entryDx=0;entryDy=0;fontColor=#000000;" parent="1" source="0jrbXOjKX1jkyTTBD30B-1" target="0jrbXOjKX1jkyTTBD30B-112" edge="1">
                    <mxGeometry relative="1" as="geometry"/>
                </mxCell>
                <mxCell id="0jrbXOjKX1jkyTTBD30B-1" value="/v1/api" style="rounded=0;whiteSpace=wrap;html=1;fillColor=#d5e8d4;strokeColor=#82b366;fontColor=#000000;" parent="1" vertex="1">
                    <mxGeometry x="180" y="490" width="120" height="60" as="geometry"/>
                </mxCell>
                <mxCell id="0jrbXOjKX1jkyTTBD30B-2" value="/signup" style="rounded=0;whiteSpace=wrap;html=1;fillColor=#ffe6cc;strokeColor=#d79b00;fontColor=#000000;" parent="1" vertex="1">
                    <mxGeometry x="600" y="-55" width="120" height="60" as="geometry"/>
                </mxCell>
                <mxCell id="0jrbXOjKX1jkyTTBD30B-3" value="/login" style="rounded=0;whiteSpace=wrap;html=1;fillColor=#ffe6cc;strokeColor=#d79b00;fontColor=#000000;" parent="1" vertex="1">
                    <mxGeometry x="600" y="25" width="120" height="60" as="geometry"/>
                </mxCell>
                <mxCell id="0jrbXOjKX1jkyTTBD30B-4" value="/logout" style="rounded=0;whiteSpace=wrap;html=1;fillColor=#ffe6cc;strokeColor=#d79b00;fontColor=#000000;" parent="1" vertex="1">
                    <mxGeometry x="600" y="105" width="120" height="60" as="geometry"/>
                </mxCell>
                <mxCell id="0jrbXOjKX1jkyTTBD30B-8" value="/delta/:postId" style="rounded=0;whiteSpace=wrap;html=1;fillColor=#dae8fc;strokeColor=#6c8ebf;fontColor=#000000;" parent="1" vertex="1">
                    <mxGeometry x="600" y="180" width="120" height="60" as="geometry"/>
                </mxCell>
                <mxCell id="0jrbXOjKX1jkyTTBD30B-9" value="/posts/allPost" style="rounded=0;whiteSpace=wrap;html=1;fillColor=#f8cecc;strokeColor=#b85450;fontColor=#000000;" parent="1" vertex="1">
                    <mxGeometry x="600" y="791" width="120" height="60" as="geometry"/>
                </mxCell>
                <mxCell id="0jrbXOjKX1jkyTTBD30B-13" value="/edit/:id" style="rounded=0;whiteSpace=wrap;html=1;fillColor=#dae8fc;strokeColor=#6c8ebf;fontColor=#000000;" parent="1" vertex="1">
                    <mxGeometry x="600" y="320" width="120" height="60" as="geometry"/>
                </mxCell>
                <mxCell id="0jrbXOjKX1jkyTTBD30B-14" value="/search?" style="rounded=0;whiteSpace=wrap;html=1;fontColor=#000000;" parent="1" vertex="1">
                    <mxGeometry x="-20" y="690" width="120" height="60" as="geometry"/>
                </mxCell>
                <mxCell id="0jrbXOjKX1jkyTTBD30B-15" value="/follow/::userId" style="rounded=0;whiteSpace=wrap;html=1;fillColor=#fff2cc;strokeColor=#d6b656;fontColor=#000000;" parent="1" vertex="1">
                    <mxGeometry x="-210" y="270" width="120" height="60" as="geometry"/>
                </mxCell>
                <mxCell id="0jrbXOjKX1jkyTTBD30B-16" value="/like/::postId?like=true" style="rounded=0;whiteSpace=wrap;html=1;fillColor=#dae8fc;strokeColor=#6c8ebf;fontColor=#000000;" parent="1" vertex="1">
                    <mxGeometry x="600" y="470" width="120" height="60" as="geometry"/>
                </mxCell>
                <mxCell id="0jrbXOjKX1jkyTTBD30B-17" value="/comment/::postId" style="rounded=0;whiteSpace=wrap;html=1;fillColor=#dae8fc;strokeColor=#6c8ebf;fontColor=#000000;" parent="1" vertex="1">
                    <mxGeometry x="600" y="397" width="120" height="60" as="geometry"/>
                </mxCell>
                <mxCell id="0jrbXOjKX1jkyTTBD30B-59" style="edgeStyle=orthogonalEdgeStyle;rounded=0;orthogonalLoop=1;jettySize=auto;html=1;fontColor=#000000;" parent="1" source="0jrbXOjKX1jkyTTBD30B-20" target="0jrbXOjKX1jkyTTBD30B-57" edge="1">
                    <mxGeometry relative="1" as="geometry"/>
                </mxCell>
                <mxCell id="0jrbXOjKX1jkyTTBD30B-60" style="edgeStyle=orthogonalEdgeStyle;rounded=0;orthogonalLoop=1;jettySize=auto;html=1;entryX=1;entryY=0.5;entryDx=0;entryDy=0;fontColor=#000000;" parent="1" source="0jrbXOjKX1jkyTTBD30B-20" target="0jrbXOjKX1jkyTTBD30B-58" edge="1">
                    <mxGeometry relative="1" as="geometry"/>
                </mxCell>
                <mxCell id="0jrbXOjKX1jkyTTBD30B-20" value="/recommend?" style="rounded=0;whiteSpace=wrap;html=1;fontColor=#000000;" parent="1" vertex="1">
                    <mxGeometry x="-20" y="570" width="120" height="60" as="geometry"/>
                </mxCell>
                <mxCell id="0jrbXOjKX1jkyTTBD30B-82" style="edgeStyle=orthogonalEdgeStyle;rounded=0;orthogonalLoop=1;jettySize=auto;html=1;entryX=1;entryY=0.5;entryDx=0;entryDy=0;fontColor=#000000;" parent="1" source="0jrbXOjKX1jkyTTBD30B-22" target="0jrbXOjKX1jkyTTBD30B-70" edge="1">
                    <mxGeometry relative="1" as="geometry"/>
                </mxCell>
                <mxCell id="0jrbXOjKX1jkyTTBD30B-83" style="edgeStyle=orthogonalEdgeStyle;rounded=0;orthogonalLoop=1;jettySize=auto;html=1;entryX=1;entryY=0.5;entryDx=0;entryDy=0;fontColor=#000000;" parent="1" source="0jrbXOjKX1jkyTTBD30B-22" target="0jrbXOjKX1jkyTTBD30B-71" edge="1">
                    <mxGeometry relative="1" as="geometry"/>
                </mxCell>
                <mxCell id="0jrbXOjKX1jkyTTBD30B-84" style="edgeStyle=orthogonalEdgeStyle;rounded=0;orthogonalLoop=1;jettySize=auto;html=1;entryX=1;entryY=0.5;entryDx=0;entryDy=0;fontColor=#000000;" parent="1" source="0jrbXOjKX1jkyTTBD30B-22" target="0jrbXOjKX1jkyTTBD30B-75" edge="1">
                    <mxGeometry relative="1" as="geometry"/>
                </mxCell>
                <mxCell id="0jrbXOjKX1jkyTTBD30B-22" value="/notification?" style="rounded=0;whiteSpace=wrap;html=1;fontColor=#000000;" parent="1" vertex="1">
                    <mxGeometry x="-20" y="900" width="120" height="60" as="geometry"/>
                </mxCell>
                <mxCell id="0jrbXOjKX1jkyTTBD30B-23" value="/profile" style="rounded=0;whiteSpace=wrap;html=1;fillColor=#fff2cc;strokeColor=#d6b656;fontColor=#000000;" parent="1" vertex="1">
                    <mxGeometry x="-210" y="130" width="120" height="60" as="geometry"/>
                </mxCell>
                <mxCell id="0jrbXOjKX1jkyTTBD30B-66" value="" style="edgeStyle=orthogonalEdgeStyle;rounded=0;orthogonalLoop=1;jettySize=auto;html=1;fontColor=#000000;" parent="1" source="0jrbXOjKX1jkyTTBD30B-32" target="0jrbXOjKX1jkyTTBD30B-34" edge="1">
                    <mxGeometry relative="1" as="geometry"/>
                </mxCell>
                <mxCell id="0jrbXOjKX1jkyTTBD30B-67" style="edgeStyle=orthogonalEdgeStyle;rounded=0;orthogonalLoop=1;jettySize=auto;html=1;entryX=1;entryY=0.5;entryDx=0;entryDy=0;fontColor=#000000;" parent="1" source="0jrbXOjKX1jkyTTBD30B-32" target="0jrbXOjKX1jkyTTBD30B-33" edge="1">
                    <mxGeometry relative="1" as="geometry"/>
                </mxCell>
                <mxCell id="0jrbXOjKX1jkyTTBD30B-68" style="edgeStyle=orthogonalEdgeStyle;rounded=0;orthogonalLoop=1;jettySize=auto;html=1;entryX=1;entryY=0.5;entryDx=0;entryDy=0;fontColor=#000000;" parent="1" source="0jrbXOjKX1jkyTTBD30B-32" target="0jrbXOjKX1jkyTTBD30B-35" edge="1">
                    <mxGeometry relative="1" as="geometry"/>
                </mxCell>
                <mxCell id="0jrbXOjKX1jkyTTBD30B-32" value="/stat" style="rounded=0;whiteSpace=wrap;html=1;fontColor=#000000;" parent="1" vertex="1">
                    <mxGeometry x="-30" y="-20" width="120" height="60" as="geometry"/>
                </mxCell>
                <mxCell id="0jrbXOjKX1jkyTTBD30B-33" value="/readPost?" style="rounded=0;whiteSpace=wrap;html=1;fontColor=#000000;" parent="1" vertex="1">
                    <mxGeometry x="-210" y="-90" width="120" height="60" as="geometry"/>
                </mxCell>
                <mxCell id="0jrbXOjKX1jkyTTBD30B-34" value="/writePost?" style="rounded=0;whiteSpace=wrap;html=1;fontColor=#000000;" parent="1" vertex="1">
                    <mxGeometry x="-210" y="-20" width="120" height="60" as="geometry"/>
                </mxCell>
                <mxCell id="0jrbXOjKX1jkyTTBD30B-35" value="/follower?" style="rounded=0;whiteSpace=wrap;html=1;fontColor=#000000;" parent="1" vertex="1">
                    <mxGeometry x="-210" y="60" width="120" height="60" as="geometry"/>
                </mxCell>
                <mxCell id="0jrbXOjKX1jkyTTBD30B-36" value="/reply/::commentId" style="rounded=0;whiteSpace=wrap;html=1;fillColor=#e1d5e7;strokeColor=#9673a6;fontColor=#000000;" parent="1" vertex="1">
                    <mxGeometry x="600" y="1011" width="120" height="60" as="geometry"/>
                </mxCell>
                <mxCell id="0jrbXOjKX1jkyTTBD30B-37" value="/like/::commentId" style="rounded=0;whiteSpace=wrap;html=1;fillColor=#e1d5e7;strokeColor=#9673a6;fontColor=#000000;" parent="1" vertex="1">
                    <mxGeometry x="600" y="1131" width="120" height="60" as="geometry"/>
                </mxCell>
                <mxCell id="0jrbXOjKX1jkyTTBD30B-38" value="/publish" style="rounded=0;whiteSpace=wrap;html=1;fillColor=#dae8fc;strokeColor=#6c8ebf;fontColor=#000000;" parent="1" vertex="1">
                    <mxGeometry x="600" y="250" width="120" height="60" as="geometry"/>
                </mxCell>
                <mxCell id="0jrbXOjKX1jkyTTBD30B-40" value="/posts/filterPost?...." style="rounded=0;whiteSpace=wrap;html=1;fillColor=#f8cecc;strokeColor=#b85450;fontColor=#000000;" parent="1" vertex="1">
                    <mxGeometry x="600" y="861" width="120" height="60" as="geometry"/>
                </mxCell>
                <mxCell id="0jrbXOjKX1jkyTTBD30B-45" value="/editprofile/::userId" style="rounded=0;whiteSpace=wrap;html=1;fillColor=#fff2cc;strokeColor=#d6b656;fontColor=#000000;" parent="1" vertex="1">
                    <mxGeometry x="-240" y="200" width="150" height="60" as="geometry"/>
                </mxCell>
                <mxCell id="0jrbXOjKX1jkyTTBD30B-48" value="/posts/myPost" style="rounded=0;whiteSpace=wrap;html=1;fillColor=#f8cecc;strokeColor=#b85450;fontColor=#000000;" parent="1" vertex="1">
                    <mxGeometry x="600" y="721" width="120" height="60" as="geometry"/>
                </mxCell>
                <mxCell id="0jrbXOjKX1jkyTTBD30B-49" value="/posts/saveList" style="rounded=0;whiteSpace=wrap;html=1;fillColor=#f8cecc;strokeColor=#b85450;fontColor=#000000;" parent="1" vertex="1">
                    <mxGeometry x="600" y="931" width="120" height="60" as="geometry"/>
                </mxCell>
                <mxCell id="0jrbXOjKX1jkyTTBD30B-50" value="/save/::postId" style="rounded=0;whiteSpace=wrap;html=1;fillColor=#dae8fc;strokeColor=#6c8ebf;fontColor=#000000;" parent="1" vertex="1">
                    <mxGeometry x="600" y="550" width="120" height="60" as="geometry"/>
                </mxCell>
                <mxCell id="0jrbXOjKX1jkyTTBD30B-53" value="/listFollowing" style="rounded=0;whiteSpace=wrap;html=1;fillColor=#fff2cc;strokeColor=#d6b656;fontColor=#000000;" parent="1" vertex="1">
                    <mxGeometry x="-210" y="350" width="120" height="60" as="geometry"/>
                </mxCell>
                <mxCell id="0jrbXOjKX1jkyTTBD30B-55" value="/listFollower" style="rounded=0;whiteSpace=wrap;html=1;fillColor=#fff2cc;strokeColor=#d6b656;fontColor=#000000;" parent="1" vertex="1">
                    <mxGeometry x="-210" y="420" width="120" height="60" as="geometry"/>
                </mxCell>
                <mxCell id="0jrbXOjKX1jkyTTBD30B-57" value="/category" style="rounded=0;whiteSpace=wrap;html=1;fontColor=#000000;" parent="1" vertex="1">
                    <mxGeometry x="-210" y="510" width="120" height="60" as="geometry"/>
                </mxCell>
                <mxCell id="0jrbXOjKX1jkyTTBD30B-58" value="/filter?..." style="rounded=0;whiteSpace=wrap;html=1;fontColor=#000000;" parent="1" vertex="1">
                    <mxGeometry x="-210" y="610" width="120" height="60" as="geometry"/>
                </mxCell>
                <mxCell id="0jrbXOjKX1jkyTTBD30B-70" value="/post" style="rounded=0;whiteSpace=wrap;html=1;fontColor=#000000;" parent="1" vertex="1">
                    <mxGeometry x="-200" y="810" width="120" height="60" as="geometry"/>
                </mxCell>
                <mxCell id="0jrbXOjKX1jkyTTBD30B-71" value="/follow" style="rounded=0;whiteSpace=wrap;html=1;fontColor=#000000;" parent="1" vertex="1">
                    <mxGeometry x="-200" y="900" width="120" height="60" as="geometry"/>
                </mxCell>
                <mxCell id="0jrbXOjKX1jkyTTBD30B-75" value="anyReply" style="rounded=0;whiteSpace=wrap;html=1;fontColor=#000000;" parent="1" vertex="1">
                    <mxGeometry x="-200" y="990" width="120" height="60" as="geometry"/>
                </mxCell>
                <mxCell id="0jrbXOjKX1jkyTTBD30B-86" style="edgeStyle=orthogonalEdgeStyle;rounded=0;orthogonalLoop=1;jettySize=auto;html=1;entryX=0;entryY=0.5;entryDx=0;entryDy=0;fillColor=#e1d5e7;strokeColor=#9673a6;fontColor=#000000;" parent="1" source="0jrbXOjKX1jkyTTBD30B-85" target="0jrbXOjKX1jkyTTBD30B-36" edge="1">
                    <mxGeometry relative="1" as="geometry"/>
                </mxCell>
                <mxCell id="0jrbXOjKX1jkyTTBD30B-87" style="edgeStyle=orthogonalEdgeStyle;rounded=0;orthogonalLoop=1;jettySize=auto;html=1;entryX=0;entryY=0.5;entryDx=0;entryDy=0;fillColor=#e1d5e7;strokeColor=#9673a6;fontColor=#000000;" parent="1" source="0jrbXOjKX1jkyTTBD30B-85" target="0jrbXOjKX1jkyTTBD30B-37" edge="1">
                    <mxGeometry relative="1" as="geometry"/>
                </mxCell>
                <mxCell id="0jrbXOjKX1jkyTTBD30B-85" value="/comment" style="rounded=0;whiteSpace=wrap;html=1;fillColor=#e1d5e7;strokeColor=#9673a6;fontColor=#000000;" parent="1" vertex="1">
                    <mxGeometry x="400" y="1071" width="120" height="60" as="geometry"/>
                </mxCell>
                <mxCell id="0jrbXOjKX1jkyTTBD30B-89" value="/forgot-password" style="rounded=0;whiteSpace=wrap;html=1;fillColor=#ffe6cc;strokeColor=#d79b00;fontColor=#000000;" parent="1" vertex="1">
                    <mxGeometry x="600" y="-145" width="120" height="60" as="geometry"/>
                </mxCell>
                <mxCell id="0jrbXOjKX1jkyTTBD30B-93" style="edgeStyle=orthogonalEdgeStyle;rounded=0;orthogonalLoop=1;jettySize=auto;html=1;entryX=1;entryY=0.5;entryDx=0;entryDy=0;fontColor=#000000;" parent="1" source="0jrbXOjKX1jkyTTBD30B-91" target="0jrbXOjKX1jkyTTBD30B-23" edge="1">
                    <mxGeometry relative="1" as="geometry"/>
                </mxCell>
                <mxCell id="0jrbXOjKX1jkyTTBD30B-94" style="edgeStyle=orthogonalEdgeStyle;rounded=0;orthogonalLoop=1;jettySize=auto;html=1;entryX=1;entryY=0.5;entryDx=0;entryDy=0;fontColor=#000000;" parent="1" source="0jrbXOjKX1jkyTTBD30B-91" target="0jrbXOjKX1jkyTTBD30B-45" edge="1">
                    <mxGeometry relative="1" as="geometry"/>
                </mxCell>
                <mxCell id="0jrbXOjKX1jkyTTBD30B-95" style="edgeStyle=orthogonalEdgeStyle;rounded=0;orthogonalLoop=1;jettySize=auto;html=1;entryX=1;entryY=0.5;entryDx=0;entryDy=0;fontColor=#000000;" parent="1" source="0jrbXOjKX1jkyTTBD30B-91" target="0jrbXOjKX1jkyTTBD30B-15" edge="1">
                    <mxGeometry relative="1" as="geometry"/>
                </mxCell>
                <mxCell id="0jrbXOjKX1jkyTTBD30B-96" style="edgeStyle=orthogonalEdgeStyle;rounded=0;orthogonalLoop=1;jettySize=auto;html=1;entryX=1;entryY=0.5;entryDx=0;entryDy=0;fontColor=#000000;" parent="1" source="0jrbXOjKX1jkyTTBD30B-91" target="0jrbXOjKX1jkyTTBD30B-53" edge="1">
                    <mxGeometry relative="1" as="geometry"/>
                </mxCell>
                <mxCell id="0jrbXOjKX1jkyTTBD30B-97" style="edgeStyle=orthogonalEdgeStyle;rounded=0;orthogonalLoop=1;jettySize=auto;html=1;entryX=1;entryY=0.5;entryDx=0;entryDy=0;fontColor=#000000;" parent="1" source="0jrbXOjKX1jkyTTBD30B-91" target="0jrbXOjKX1jkyTTBD30B-55" edge="1">
                    <mxGeometry relative="1" as="geometry"/>
                </mxCell>
                <mxCell id="0jrbXOjKX1jkyTTBD30B-91" value="/user" style="rounded=0;whiteSpace=wrap;html=1;fillColor=#fff2cc;strokeColor=#d6b656;fontColor=#000000;" parent="1" vertex="1">
                    <mxGeometry x="-20" y="250" width="120" height="60" as="geometry"/>
                </mxCell>
                <mxCell id="0jrbXOjKX1jkyTTBD30B-100" style="edgeStyle=orthogonalEdgeStyle;rounded=0;orthogonalLoop=1;jettySize=auto;html=1;entryX=0;entryY=0.5;entryDx=0;entryDy=0;fontColor=#000000;" parent="1" source="0jrbXOjKX1jkyTTBD30B-98" target="0jrbXOjKX1jkyTTBD30B-89" edge="1">
                    <mxGeometry relative="1" as="geometry"/>
                </mxCell>
                <mxCell id="0jrbXOjKX1jkyTTBD30B-101" style="edgeStyle=orthogonalEdgeStyle;rounded=0;orthogonalLoop=1;jettySize=auto;html=1;entryX=0;entryY=0.5;entryDx=0;entryDy=0;fontColor=#000000;" parent="1" source="0jrbXOjKX1jkyTTBD30B-98" target="0jrbXOjKX1jkyTTBD30B-2" edge="1">
                    <mxGeometry relative="1" as="geometry"/>
                </mxCell>
                <mxCell id="0jrbXOjKX1jkyTTBD30B-102" style="edgeStyle=orthogonalEdgeStyle;rounded=0;orthogonalLoop=1;jettySize=auto;html=1;entryX=0;entryY=0.5;entryDx=0;entryDy=0;fontColor=#000000;" parent="1" source="0jrbXOjKX1jkyTTBD30B-98" target="0jrbXOjKX1jkyTTBD30B-3" edge="1">
                    <mxGeometry relative="1" as="geometry"/>
                </mxCell>
                <mxCell id="0jrbXOjKX1jkyTTBD30B-103" style="edgeStyle=orthogonalEdgeStyle;rounded=0;orthogonalLoop=1;jettySize=auto;html=1;entryX=0;entryY=0.5;entryDx=0;entryDy=0;fontColor=#000000;" parent="1" source="0jrbXOjKX1jkyTTBD30B-98" target="0jrbXOjKX1jkyTTBD30B-4" edge="1">
                    <mxGeometry relative="1" as="geometry"/>
                </mxCell>
                <mxCell id="0jrbXOjKX1jkyTTBD30B-98" value="/auth" style="rounded=0;whiteSpace=wrap;html=1;fillColor=#ffe6cc;strokeColor=#d79b00;fontColor=#000000;" parent="1" vertex="1">
                    <mxGeometry x="400" y="-30" width="120" height="60" as="geometry"/>
                </mxCell>
                <mxCell id="0jrbXOjKX1jkyTTBD30B-105" style="edgeStyle=orthogonalEdgeStyle;rounded=0;orthogonalLoop=1;jettySize=auto;html=1;entryX=0;entryY=0.5;entryDx=0;entryDy=0;fontColor=#000000;" parent="1" source="0jrbXOjKX1jkyTTBD30B-104" target="0jrbXOjKX1jkyTTBD30B-8" edge="1">
                    <mxGeometry relative="1" as="geometry"/>
                </mxCell>
                <mxCell id="0jrbXOjKX1jkyTTBD30B-106" style="edgeStyle=orthogonalEdgeStyle;rounded=0;orthogonalLoop=1;jettySize=auto;html=1;entryX=0;entryY=0.5;entryDx=0;entryDy=0;fontColor=#000000;" parent="1" source="0jrbXOjKX1jkyTTBD30B-104" target="0jrbXOjKX1jkyTTBD30B-38" edge="1">
                    <mxGeometry relative="1" as="geometry"/>
                </mxCell>
                <mxCell id="0jrbXOjKX1jkyTTBD30B-107" style="edgeStyle=orthogonalEdgeStyle;rounded=0;orthogonalLoop=1;jettySize=auto;html=1;entryX=0;entryY=0.5;entryDx=0;entryDy=0;fontColor=#000000;" parent="1" source="0jrbXOjKX1jkyTTBD30B-104" target="0jrbXOjKX1jkyTTBD30B-13" edge="1">
                    <mxGeometry relative="1" as="geometry"/>
                </mxCell>
                <mxCell id="0jrbXOjKX1jkyTTBD30B-108" style="edgeStyle=orthogonalEdgeStyle;rounded=0;orthogonalLoop=1;jettySize=auto;html=1;entryX=0;entryY=0.5;entryDx=0;entryDy=0;fontColor=#000000;" parent="1" source="0jrbXOjKX1jkyTTBD30B-104" target="0jrbXOjKX1jkyTTBD30B-17" edge="1">
                    <mxGeometry relative="1" as="geometry"/>
                </mxCell>
                <mxCell id="0jrbXOjKX1jkyTTBD30B-109" style="edgeStyle=orthogonalEdgeStyle;rounded=0;orthogonalLoop=1;jettySize=auto;html=1;entryX=0;entryY=0.5;entryDx=0;entryDy=0;fontColor=#000000;" parent="1" source="0jrbXOjKX1jkyTTBD30B-104" target="0jrbXOjKX1jkyTTBD30B-16" edge="1">
                    <mxGeometry relative="1" as="geometry"/>
                </mxCell>
                <mxCell id="0jrbXOjKX1jkyTTBD30B-110" style="edgeStyle=orthogonalEdgeStyle;rounded=0;orthogonalLoop=1;jettySize=auto;html=1;entryX=0;entryY=0.5;entryDx=0;entryDy=0;fontColor=#000000;" parent="1" source="0jrbXOjKX1jkyTTBD30B-104" target="0jrbXOjKX1jkyTTBD30B-50" edge="1">
                    <mxGeometry relative="1" as="geometry"/>
                </mxCell>
                <mxCell id="6" style="edgeStyle=none;html=1;fontColor=#000000;entryX=0;entryY=0.5;entryDx=0;entryDy=0;" edge="1" parent="1" source="0jrbXOjKX1jkyTTBD30B-104" target="4">
                    <mxGeometry relative="1" as="geometry">
                        <mxPoint x="570" y="390" as="targetPoint"/>
                        <Array as="points">
                            <mxPoint x="560" y="350"/>
                            <mxPoint x="560" y="670"/>
                        </Array>
                    </mxGeometry>
                </mxCell>
                <mxCell id="0jrbXOjKX1jkyTTBD30B-104" value="/post" style="rounded=0;whiteSpace=wrap;html=1;fillColor=#dae8fc;strokeColor=#6c8ebf;fontColor=#000000;" parent="1" vertex="1">
                    <mxGeometry x="400" y="320" width="120" height="60" as="geometry"/>
                </mxCell>
                <mxCell id="0jrbXOjKX1jkyTTBD30B-113" style="edgeStyle=orthogonalEdgeStyle;rounded=0;orthogonalLoop=1;jettySize=auto;html=1;entryX=0;entryY=0.5;entryDx=0;entryDy=0;fontColor=#000000;" parent="1" source="0jrbXOjKX1jkyTTBD30B-112" target="0jrbXOjKX1jkyTTBD30B-48" edge="1">
                    <mxGeometry relative="1" as="geometry"/>
                </mxCell>
                <mxCell id="0jrbXOjKX1jkyTTBD30B-114" style="edgeStyle=orthogonalEdgeStyle;rounded=0;orthogonalLoop=1;jettySize=auto;html=1;entryX=0;entryY=0.5;entryDx=0;entryDy=0;fontColor=#000000;" parent="1" source="0jrbXOjKX1jkyTTBD30B-112" target="0jrbXOjKX1jkyTTBD30B-9" edge="1">
                    <mxGeometry relative="1" as="geometry"/>
                </mxCell>
                <mxCell id="0jrbXOjKX1jkyTTBD30B-115" style="edgeStyle=orthogonalEdgeStyle;rounded=0;orthogonalLoop=1;jettySize=auto;html=1;entryX=0;entryY=0.5;entryDx=0;entryDy=0;fontColor=#000000;" parent="1" source="0jrbXOjKX1jkyTTBD30B-112" target="0jrbXOjKX1jkyTTBD30B-40" edge="1">
                    <mxGeometry relative="1" as="geometry"/>
                </mxCell>
                <mxCell id="0jrbXOjKX1jkyTTBD30B-116" style="edgeStyle=orthogonalEdgeStyle;rounded=0;orthogonalLoop=1;jettySize=auto;html=1;entryX=0;entryY=0.5;entryDx=0;entryDy=0;fontColor=#000000;" parent="1" source="0jrbXOjKX1jkyTTBD30B-112" target="0jrbXOjKX1jkyTTBD30B-49" edge="1">
                    <mxGeometry relative="1" as="geometry"/>
                </mxCell>
                <mxCell id="0jrbXOjKX1jkyTTBD30B-112" value="/posts" style="rounded=0;whiteSpace=wrap;html=1;fillColor=#f8cecc;strokeColor=#b85450;fontColor=#000000;" parent="1" vertex="1">
                    <mxGeometry x="400" y="831" width="120" height="60" as="geometry"/>
                </mxCell>
                <mxCell id="PYn_XtkxBCTi85KDBgQG-2" value="" style="ellipse;whiteSpace=wrap;html=1;aspect=fixed;fontColor=#000000;" parent="1" vertex="1">
                    <mxGeometry x="760" y="-140" width="35" height="35" as="geometry"/>
                </mxCell>
                <mxCell id="PYn_XtkxBCTi85KDBgQG-3" value="" style="ellipse;whiteSpace=wrap;html=1;aspect=fixed;fontColor=#000000;" parent="1" vertex="1">
                    <mxGeometry x="760" y="-50" width="35" height="35" as="geometry"/>
                </mxCell>
                <mxCell id="PYn_XtkxBCTi85KDBgQG-8" style="edgeStyle=orthogonalEdgeStyle;rounded=0;orthogonalLoop=1;jettySize=auto;html=1;entryX=0.5;entryY=0;entryDx=0;entryDy=0;fontColor=#000000;fillColor=#60a917;strokeColor=#2D7600;" parent="1" source="PYn_XtkxBCTi85KDBgQG-4" target="PYn_XtkxBCTi85KDBgQG-7" edge="1">
                    <mxGeometry relative="1" as="geometry"/>
                </mxCell>
                <mxCell id="PYn_XtkxBCTi85KDBgQG-4" value="(1) POST /forgot-password" style="rounded=0;whiteSpace=wrap;html=1;fontColor=#ffffff;fillColor=#60a917;strokeColor=#2D7600;" parent="1" vertex="1">
                    <mxGeometry x="320" y="-420" width="210" height="60" as="geometry"/>
                </mxCell>
                <mxCell id="PYn_XtkxBCTi85KDBgQG-12" value="" style="edgeStyle=orthogonalEdgeStyle;rounded=0;orthogonalLoop=1;jettySize=auto;html=1;fontColor=#000000;fillColor=#60a917;strokeColor=#2D7600;" parent="1" source="PYn_XtkxBCTi85KDBgQG-5" target="PYn_XtkxBCTi85KDBgQG-11" edge="1">
                    <mxGeometry relative="1" as="geometry"/>
                </mxCell>
                <mxCell id="PYn_XtkxBCTi85KDBgQG-5" value="(2) POST/forgot-password/::id" style="rounded=0;whiteSpace=wrap;html=1;fontColor=#ffffff;fillColor=#60a917;strokeColor=#2D7600;" parent="1" vertex="1">
                    <mxGeometry x="730" y="-420" width="210" height="60" as="geometry"/>
                </mxCell>
                <mxCell id="PYn_XtkxBCTi85KDBgQG-10" value="" style="edgeStyle=orthogonalEdgeStyle;rounded=0;orthogonalLoop=1;jettySize=auto;html=1;fontColor=#000000;fillColor=#60a917;strokeColor=#2D7600;" parent="1" source="PYn_XtkxBCTi85KDBgQG-7" target="PYn_XtkxBCTi85KDBgQG-9" edge="1">
                    <mxGeometry relative="1" as="geometry"/>
                </mxCell>
                <mxCell id="PYn_XtkxBCTi85KDBgQG-7" value="1. check mail exist&lt;br&gt;2. create token, save to db then send token to mail" style="rounded=0;whiteSpace=wrap;html=1;align=left;fontColor=#ffffff;fillColor=#60a917;strokeColor=#2D7600;" parent="1" vertex="1">
                    <mxGeometry x="365" y="-300" width="120" height="60" as="geometry"/>
                </mxCell>
                <mxCell id="PYn_XtkxBCTi85KDBgQG-9" value="200" style="rounded=0;whiteSpace=wrap;html=1;fontColor=#ffffff;fillColor=#60a917;strokeColor=#2D7600;" parent="1" vertex="1">
                    <mxGeometry x="560" y="-300" width="120" height="60" as="geometry"/>
                </mxCell>
                <mxCell id="PYn_XtkxBCTi85KDBgQG-13" value="" style="edgeStyle=orthogonalEdgeStyle;rounded=0;orthogonalLoop=1;jettySize=auto;html=1;fontColor=#000000;fillColor=#60a917;strokeColor=#2D7600;" parent="1" source="PYn_XtkxBCTi85KDBgQG-11" target="PYn_XtkxBCTi85KDBgQG-9" edge="1">
                    <mxGeometry relative="1" as="geometry"/>
                </mxCell>
                <mxCell id="PYn_XtkxBCTi85KDBgQG-11" value="1. verify token&lt;br&gt;2. set cookies (userId, token)" style="rounded=0;whiteSpace=wrap;html=1;align=left;fontColor=#ffffff;fillColor=#60a917;strokeColor=#2D7600;" parent="1" vertex="1">
                    <mxGeometry x="775" y="-300" width="120" height="60" as="geometry"/>
                </mxCell>
                <mxCell id="PYn_XtkxBCTi85KDBgQG-17" value="" style="edgeStyle=orthogonalEdgeStyle;rounded=0;orthogonalLoop=1;jettySize=auto;html=1;fontColor=#000000;fillColor=#60a917;strokeColor=#2D7600;" parent="1" source="PYn_XtkxBCTi85KDBgQG-14" target="PYn_XtkxBCTi85KDBgQG-16" edge="1">
                    <mxGeometry relative="1" as="geometry"/>
                </mxCell>
                <mxCell id="PYn_XtkxBCTi85KDBgQG-14" value="(3) POST /reset-password" style="rounded=0;whiteSpace=wrap;html=1;fontColor=#ffffff;fillColor=#60a917;strokeColor=#2D7600;" parent="1" vertex="1">
                    <mxGeometry x="515" y="-530" width="210" height="60" as="geometry"/>
                </mxCell>
                <mxCell id="PYn_XtkxBCTi85KDBgQG-18" style="edgeStyle=orthogonalEdgeStyle;rounded=0;orthogonalLoop=1;jettySize=auto;html=1;entryX=0.5;entryY=0;entryDx=0;entryDy=0;fontColor=#000000;fillColor=#60a917;strokeColor=#2D7600;" parent="1" source="PYn_XtkxBCTi85KDBgQG-16" target="PYn_XtkxBCTi85KDBgQG-9" edge="1">
                    <mxGeometry relative="1" as="geometry"/>
                </mxCell>
                <mxCell id="PYn_XtkxBCTi85KDBgQG-16" value="1. verify cookies&lt;br&gt;2. delete token&lt;br&gt;3. delete cookies&lt;br&gt;4. set password mới" style="rounded=0;whiteSpace=wrap;html=1;align=left;fontColor=#ffffff;fillColor=#60a917;strokeColor=#2D7600;" parent="1" vertex="1">
                    <mxGeometry x="560" y="-430" width="120" height="60" as="geometry"/>
                </mxCell>
                <mxCell id="2" value="" style="rounded=0;whiteSpace=wrap;html=1;fontColor=#333333;fillColor=#f5f5f5;strokeColor=#666666;" vertex="1" parent="1">
                    <mxGeometry x="760" y="250" width="120" height="60" as="geometry"/>
                </mxCell>
                <mxCell id="3" value="" style="rounded=0;whiteSpace=wrap;html=1;fontColor=#333333;fillColor=#f5f5f5;strokeColor=#666666;" vertex="1" parent="1">
                    <mxGeometry x="830" y="390" width="120" height="60" as="geometry"/>
                </mxCell>
                <mxCell id="4" value="/read/::postId" style="rounded=0;whiteSpace=wrap;html=1;fillColor=#dae8fc;strokeColor=#6c8ebf;fontColor=#000000;" vertex="1" parent="1">
                    <mxGeometry x="600" y="640" width="120" height="60" as="geometry"/>
                </mxCell>
            </root>
        </mxGraphModel>
    </diagram>
</mxfile>